# xmcd CD database file generated by Grip 3.3.1
# 
# Track frame offsets:
#       150
#       11352
#       25970
#       40250
#       53310
#       70002
#       90495
#       99952
#       118917
#       139115
#       158400
#       172265
# 
# Disc length: 2482 seconds
# 
# Revision: 1
# Processed by: cddbd v1.5.1PL2 Copyright (c) Steve Scherf et al.
# Submitted via: Grip 3.3.1
# 
DISCID=8b09b00c
DTITLE=Sarah Lee Guthrie and Johnny Irion - Exploration
DYEAR=2005
DGENRE=Country
TTITLE0=in lieu of flowers
TTITLE1=cease fire
TTITLE2=holdin'back
TTITLE3=exploration
TTITLE4=kindness
TTITLE5=dr.king
TTITLE6=mornin's over
TTITLE7=gervais
TTITLE8=mixed blessings
TTITLE9=swing of things
TTITLE10=georgia pine
TTITLE11=gotta prove
EXTD=YEAR: 2005
EXTT0=
EXTT1=
EXTT2=
EXTT3=
EXTT4=
EXTT5=
EXTT6=
EXTT7=
EXTT8=
EXTT9=
EXTT10=
EXTT11=
PLAYORDER=
